<?xml version="1.0" encoding="iso-8859-1"?>
<!-- Generator: Adobe Illustrator 19.0.0, SVG Export Plug-In . SVG Version: 6.00 Build 0)  -->
<svg version="1.1" id="Layer_1" xmlns="http://www.w3.org/2000/svg" xmlns:xlink="http://www.w3.org/1999/xlink" x="0px" y="0px"
	 viewBox="0 0 512.034 512.034" style="enable-background:new 0 0 512.034 512.034;" xml:space="preserve">
<g transform="translate(1)">
	<g>
		<path style="fill:#00DA6C;" d="M143.657,8.567c8.533,0,102.4-6.827,102.4,93.013C136.83,103.287,143.657,20.514,143.657,8.567"/>
		<path style="fill:#00DA6C;" d="M416.724,145.101c-10.24,0-110.933-6.827-110.933,93.867
			C425.257,238.967,416.724,160.461,416.724,145.101"/>
	</g>
	<path style="fill:#FFE100;" d="M425.257,344.781c0,7.68-5.973,13.653-13.653,13.653H97.577c-7.68,0-13.653-5.973-13.653-13.653
		v-7.68c0-6.827,5.973-12.8,13.653-12.8h314.88c7.68,0,13.653,5.973,13.653,13.653L425.257,344.781L425.257,344.781z"/>
	<path style="fill:#FFFFFF;" d="M109.524,344.781v-7.68c0-6.827,5.973-12.8,13.653-12.8h-25.6c-7.68,0-13.653,5.973-13.653,13.653
		v7.68c0,6.827,5.973,12.8,13.653,12.8h25.6C115.497,358.434,109.524,352.461,109.524,344.781"/>
	<path style="fill:#FFA800;" d="M411.604,324.301h-25.6c7.68,0,13.653,5.973,13.653,13.653v7.68c0,7.68-5.973,13.653-13.653,13.653
		h25.6c7.68,0,13.653-5.973,13.653-13.653v-7.68C425.257,330.274,419.284,324.301,411.604,324.301"/>
	<polygon style="fill:#FFE100;" points="348.457,503.501 160.724,503.501 109.524,358.434 399.657,358.434 	"/>
	<path style="fill:#FECC00;" d="M368.084,447.181l-16.213-9.387c-6.827-4.267-16.213-3.413-22.187,1.707l-12.8,11.093
		c-6.827,5.973-15.36,10.24-24.747,10.24c-8.533,0-16.213-1.707-21.333-7.68l-33.28-34.987c-10.24-10.24-17.92-10.24-33.28-4.267
		c-8.533,3.413-16.213,12.8-26.453,12.8c-11.947,0-20.48-4.267-25.6-8.533l-30.72-27.307l39.253,112.64h187.733L368.084,447.181z"/>
	<polygon style="fill:#FFA800;" points="374.057,358.434 332.244,503.501 348.457,503.501 399.657,358.434 	"/>
	<polygon style="fill:#FFFFFF;" points="109.524,358.434 160.724,503.501 176.937,503.501 135.124,358.434 	"/>
	<path d="M411.604,366.967H97.577c-11.947,0-22.187-10.24-22.187-22.187v-7.68c0-11.947,10.24-22.187,22.187-22.187h314.88
		c11.947,0,22.187,10.24,22.187,22.187v7.68C433.79,356.727,423.55,366.967,411.604,366.967z M92.457,337.954v7.68
		c0,1.707,2.56,4.267,5.12,4.267h314.88c2.56,0,5.12-2.56,5.12-5.12v-7.68c0-2.56-2.56-5.12-5.12-5.12H97.577
		C97.577,331.981,92.457,331.127,92.457,337.954z"/>
	<path d="M354.43,512.034H154.75L97.577,349.901h314.027L354.43,512.034z M166.697,494.967h175.787l45.227-128H121.47
		L166.697,494.967z"/>
	<path d="M408.19,512.034H92.457c-5.12,0-8.533-3.413-8.533-8.533s3.413-8.533,8.533-8.533H408.19c5.12,0,8.533,3.413,8.533,8.533
		S413.31,512.034,408.19,512.034z"/>
	<path d="M354.43,512.034H154.75l-52.907-148.48l55.467,48.64c2.56,1.707,8.533,6.827,19.627,6.827c3.413,0,7.68-2.56,11.947-5.973
		c3.413-2.56,6.827-5.12,11.093-6.827c16.213-6.827,28.16-7.68,42.667,5.973l33.28,35.84c2.56,3.413,8.533,5.12,14.507,5.12
		c8.533,0,15.36-5.12,19.627-8.533l12.8-11.093c9.387-7.68,22.187-8.533,31.573-2.56l23.04,12.8L354.43,512.034z M166.697,494.967
		h175.787l15.36-43.52l-10.24-5.973c-4.267-2.56-8.533-1.707-11.947,0.853l-12.8,11.093c-9.387,7.68-19.627,11.947-29.867,11.947
		c-11.947,0.853-22.187-3.413-28.16-10.24l-33.28-34.987c-6.827-6.827-10.24-7.68-23.893-2.56c-2.56,0.853-5.12,2.56-7.68,5.12
		c-5.973,4.267-12.8,8.533-21.333,8.533c-17.067,0-27.307-7.68-30.72-10.24l-6.827-5.973L166.697,494.967z"/>
	<path d="M237.524,331.127c-1.707,0-3.413,0.853-4.267,0c-4.267-2.56-5.12-7.68-2.56-11.947
		c0.853-0.853,67.413-106.667,7.68-214.187c-2.56-4.267-0.853-9.387,3.413-11.947c4.267-2.56,9.387-0.853,11.947,3.413
		c64.853,116.907-7.68,230.4-8.533,232.107C242.644,331.127,240.084,331.127,237.524,331.127z"/>
	<path d="M243.497,110.114c-36.693,0-65.707-9.387-83.627-28.16c-25.6-25.6-24.747-59.733-23.893-71.68c0,0,2.56-10.24,7.68-10.24
		h1.707c44.373-0.853,69.12,14.507,82.773,27.307c17.92,17.067,27.307,42.667,27.307,74.24c0,4.267-3.413,8.533-8.533,8.533
		C245.204,110.114,244.35,110.114,243.497,110.114z M152.19,17.101c0,12.8,2.56,35.84,19.627,52.907
		c14.507,14.507,36.693,22.187,65.707,23.04c-1.707-23.04-8.533-40.96-21.333-53.76C205.097,29.047,186.324,17.954,152.19,17.101z"
		/>
	<path d="M246.057,110.114c-2.56,0-5.12-0.853-6.827-3.413c-14.507-18.773-29.867-33.28-48.64-44.373
		c-4.267-2.56-5.12-7.68-3.413-11.947c2.56-4.267,7.68-5.12,11.947-3.413c20.48,11.947,37.547,27.307,53.76,48.64
		c2.56,3.413,1.707,9.387-1.707,11.947C249.47,109.261,247.764,110.114,246.057,110.114z"/>
	<path d="M253.737,302.967c-2.56,0-4.267-0.853-5.973-2.56c-3.413-3.413-3.413-8.533,0-11.947
		c3.413-3.413,6.827-8.533,11.947-13.653c11.093-14.507,24.747-31.573,41.813-42.667c4.267-2.56,9.387-1.707,11.947,2.56
		c2.56,4.267,1.707,9.387-2.56,11.947c-14.507,9.387-27.307,25.6-37.547,38.4c-5.12,5.973-9.387,11.947-12.8,15.36
		C258.004,302.114,256.297,302.967,253.737,302.967z"/>
	<path d="M305.79,247.501c-5.12,0-8.533-3.413-8.533-8.533c0-30.72,9.387-55.467,27.307-73.387
		c14.507-13.653,40.96-29.867,90.453-29.013h1.707c5.12,0,8.533,3.413,8.533,8.533v2.56c0,11.947,0.853,44.373-23.04,68.267
		C382.59,237.261,350.164,247.501,305.79,247.501z M408.19,153.634c-39.253,0-60.587,12.8-71.68,23.893
		c-12.8,12.8-20.48,29.867-21.333,52.907c34.987-0.853,59.733-10.24,75.947-25.6C406.484,187.767,408.19,166.434,408.19,153.634z"/>
	<path d="M305.79,247.501c-1.707,0-4.267-0.853-5.12-1.707c-3.413-3.413-4.267-8.533-0.853-11.947
		c8.533-10.24,37.547-38.4,54.613-45.227c4.267-1.707,9.387,0,11.093,5.12c1.707,4.267,0,9.387-5.12,11.093
		c-12.8,5.12-38.4,29.013-47.787,40.107C310.91,246.647,308.35,247.501,305.79,247.501z"/>
</g>
<g>
</g>
<g>
</g>
<g>
</g>
<g>
</g>
<g>
</g>
<g>
</g>
<g>
</g>
<g>
</g>
<g>
</g>
<g>
</g>
<g>
</g>
<g>
</g>
<g>
</g>
<g>
</g>
<g>
</g>
</svg>
