<?xml version="1.0" encoding="iso-8859-1"?>
<!-- Generator: Adobe Illustrator 18.0.0, SVG Export Plug-In . SVG Version: 6.00 Build 0)  -->
<!DOCTYPE svg PUBLIC "-//W3C//DTD SVG 1.1//EN" "http://www.w3.org/Graphics/SVG/1.1/DTD/svg11.dtd">
<svg version="1.1" id="Capa_1" xmlns="http://www.w3.org/2000/svg" xmlns:xlink="http://www.w3.org/1999/xlink" x="0px" y="0px"
	 viewBox="0 0 462.51 462.51" style="enable-background:new 0 0 462.51 462.51;" xml:space="preserve">
<g>
	<path d="M450.695,94.37c0-27.631-22.484-50.11-50.12-50.11c-0.006,0-0.013,0-0.02,0c-2.202-13.911-14.274-24.58-28.791-24.58
		c-1.448,0-2.895,0.11-4.326,0.326c-4.938-9.252-14.629-15.326-25.674-15.326c-4.581,0-9.049,1.079-13.076,3.11
		C321.911,2.781,313.628,0,305.105,0c-12.727,0-24.389,6.066-31.736,15.871c-8.532-6.311-18.914-9.791-29.764-9.791
		c-24.141,0-44.42,17.255-49.096,40.079c-11.234-0.258-21.758,4.928-28.461,13.473c-7.848-4.873-16.915-7.483-26.342-7.483
		c-16.66,0-31.962,8.223-41.204,21.576c-4.542-2.11-9.522-3.226-14.626-3.226c-19.161,0-34.75,15.589-34.75,34.75
		c0,1.858,0.152,3.717,0.45,5.551c-22.085,7.354-37.76,28.339-37.76,52.289c0,13.254,4.774,26.064,13.443,36.071
		c6.476,7.475,14.8,13.03,24.037,16.15c-0.113,1.05-0.17,2.11-0.17,3.179c0,16.266,13.234,29.5,29.5,29.5
		c8.49,0,16.302-3.569,21.772-9.579c5.497,3.015,11.691,4.619,18.108,4.619c6.723,0,13.172-1.744,18.839-5.02
		c9.432,11.202,23.425,17.87,38.361,17.87c7,0,13.777-1.488,19.97-4.196c24.611,18.305,37.361,27.466,44.424,32.022
		c-0.912,2.976-2.012,5.912-3.318,8.79c-6.444,14.203-17.058,25.71-30.694,33.28c-40.901,22.703-57.326,73.637-37.392,115.957
		l1.779,3.778h-52.89c-4.694,0-8.5,3.806-8.5,8.5s3.806,8.5,8.5,8.5h222c4.694,0,8.5-3.806,8.5-8.5s-3.806-8.5-8.5-8.5h-75.241
		c-23.217-31.993-21.943-76.033,3.769-106.754c15.633-18.673,24.242-42.374,24.242-66.736c0-1.06-0.025-2.118-0.057-3.175
		l37.182-27.019c16.636-1.119,31.219-11.766,37.523-26.925c0.525,0.019,1.05,0.029,1.573,0.029
		c23.891,0,43.371-19.253,43.745-43.062c14.653-4.255,25.175-17.686,25.175-33.698c0-2.988-0.37-5.917-1.103-8.758
		C445.548,120.09,450.695,107.621,450.695,94.37z M210.652,241.618c4.029-3.913,7.422-8.516,9.97-13.664
		c1.467-0.379,2.916-0.869,4.334-1.481c1.328-0.574,2.612-1.248,3.838-2.012c2.681,2.136,5.698,3.746,8.894,4.81l3.923,18.211
		c1.27,5.895,1.79,11.838,1.589,17.732C234.976,259.437,222.854,250.633,210.652,241.618z M255.077,327.844
		c-28.143,33.625-31.811,80.61-10.926,117.666h-54.885l-5.192-11.022c-16.133-34.251-2.84-75.475,30.263-93.849
		c16.849-9.352,29.963-23.571,37.925-41.119c7.962-17.548,10.026-36.781,5.968-55.619l-3.093-14.358
		c1.112-0.331,2.216-0.723,3.305-1.193c1.358-0.586,2.653-1.281,3.892-2.057c8.518,13.753,13.02,29.511,13.02,45.727
		C275.355,292.4,268.154,312.225,255.077,327.844z M279.146,221.331c3.192-0.072,6.375-0.527,9.475-1.365
		c4.291,7.5,10.662,13.475,18.232,17.289l-16.943,12.312C287.731,239.709,284.113,230.207,279.146,221.331z M421.197,120.263
		c-3.074,2.45-4.067,6.688-2.401,10.249c1.127,2.41,1.699,4.986,1.699,7.658c0,9.837-7.699,17.785-17.527,18.094
		c-2.474,0.078-4.791,1.229-6.346,3.155c-1.555,1.925-2.193,4.433-1.749,6.868c0.3,1.64,0.452,3.283,0.452,4.883
		c0,14.755-12,26.76-26.75,26.76c-1.9,0-3.828-0.21-5.729-0.625c-2.207-0.482-4.515-0.064-6.415,1.16
		c-1.899,1.224-3.233,3.153-3.707,5.362c-2.623,12.228-13.62,21.103-26.149,21.103c-9.513,0-18.085-4.978-22.857-12.841
		c6.51-5.46,11.1-12.878,13.079-21.125c10.334,2.411,21.245,1.489,31.205-2.811c4.31-1.861,6.295-6.864,4.434-11.173
		c-1.861-4.309-6.864-6.296-11.173-4.434c-9.059,3.912-19.311,3.59-28.126-0.881c-2.741-1.391-6.021-1.192-8.576,0.519
		s-3.986,4.669-3.742,7.734c0.767,9.667-4.7,18.746-13.603,22.59c-5.855,2.529-12.3,2.498-18.145-0.086
		c-4.25-1.878-9.223,0.005-11.162,4.229c-1.26,2.746-3.463,4.91-6.205,6.093c-5.506,2.377-11.835,0.426-15.05-4.638
		c-1.47-2.314-3.965-3.778-6.702-3.931c-2.729-0.152-5.379,1.023-7.098,3.16c-1.25,1.554-2.81,2.742-4.637,3.531
		c-6.154,2.659-13.322-0.188-15.979-6.341c-0.365-0.844-0.627-1.749-0.802-2.765c-0.497-2.879-2.438-5.302-5.14-6.415
		c-2.702-1.114-5.787-0.76-8.167,0.935c-1.915,1.363-3.97,2.522-6.11,3.446c-8.12,3.506-17.12,3.641-25.341,0.378
		c-8.221-3.263-14.68-9.532-18.186-17.652c-1.86-4.31-6.864-6.295-11.173-4.434s-6.295,6.863-4.434,11.173
		c5.307,12.289,15.081,21.776,27.523,26.714c12.442,4.938,26.063,4.735,38.352-0.572c0.004-0.001,0.009-0.004,0.013-0.005
		c3.07,4.863,7.507,8.667,12.839,11.021c-6.18,7.744-15.685,12.531-25.907,12.531c-12.038,0-23.152-6.56-29.005-17.121
		c-1.296-2.339-3.618-3.932-6.267-4.299c-2.648-0.367-5.316,0.534-7.201,2.432c-3.928,3.958-9.158,6.138-14.727,6.138
		c-5.422,0-10.556-2.087-14.457-5.876c-2.035-1.977-4.925-2.808-7.697-2.216c-2.775,0.592-5.071,2.53-6.122,5.165
		c-1.911,4.792-6.465,7.888-11.604,7.888c-6.893,0-12.5-5.607-12.5-12.5c0-1.92,0.443-3.784,1.318-5.54
		c1.211-2.431,1.188-5.294-0.064-7.706c-1.251-2.411-3.579-4.079-6.264-4.487c-18.414-2.806-32.3-18.999-32.3-37.667
		c0-18.877,14.081-35.09,32.752-37.712c2.709-0.381,5.07-2.042,6.342-4.464s1.302-5.308,0.078-7.755
		c-1.236-2.472-1.863-5.132-1.863-7.908c0-9.787,7.962-17.75,17.75-17.75c4.408,0,8.636,1.63,11.905,4.591
		c2.034,1.841,4.829,2.588,7.509,2.006c2.68-0.582,4.915-2.421,6.001-4.94c5.243-12.154,17.181-20.007,30.415-20.007
		c8.623,0,16.791,3.309,22.999,9.318c2.077,2.01,5.033,2.827,7.85,2.168c2.815-0.659,5.102-2.704,6.071-5.428
		c2.564-7.212,9.425-12.058,17.071-12.058c1.924,0,3.821,0.304,5.639,0.903c2.583,0.851,5.417,0.416,7.625-1.173
		c2.207-1.588,3.522-4.136,3.536-6.855c0.095-18.166,14.948-32.945,33.11-32.945c9.87,0,19.154,4.36,25.473,11.963
		c1.966,2.365,5.055,3.483,8.082,2.926c3.024-0.559,5.511-2.708,6.502-5.62C286.787,23.168,295.404,17,305.105,17
		c6.379,0,12.282,2.583,16.622,7.273c3.159,3.413,8.476,3.656,11.931,0.54c2.241-2.02,5.12-3.133,8.108-3.133
		c5.995,0,11.031,4.302,11.976,10.228c0.432,2.707,2.142,5.039,4.594,6.265c2.452,1.226,5.343,1.194,7.768-0.086
		c1.769-0.934,3.674-1.407,5.662-1.407c6.699,0,12.15,5.455,12.15,12.16c0,0.921-0.118,1.866-0.36,2.888
		c-0.674,2.84,0.157,5.828,2.201,7.913c2.044,2.085,5.014,2.976,7.867,2.357c2.263-0.49,4.603-0.738,6.953-0.738
		c18.263,0,33.12,14.853,33.12,33.11C433.695,104.495,429.14,113.932,421.197,120.263z"/>
	<path d="M352.768,105.534c-0.863,0.373-1.719,0.765-2.567,1.176c-8.921-16.727-29.398-24.109-47.107-16.462
		c-2.38,1.028-4.645,2.309-6.753,3.812c-10.464-9.454-25.657-12.238-39.202-6.389c-5.919,2.556-11.008,6.598-14.826,11.696
		c-11.167-3.061-23.18-2.281-33.908,2.352c-20.144,8.698-32.511,29.238-30.775,51.11c0.353,4.451,4.075,7.828,8.464,7.828
		c0.226,0,0.453-0.009,0.682-0.027c4.68-0.371,8.172-4.466,7.8-9.146c-1.16-14.618,7.105-28.344,20.568-34.158
		c8.854-3.823,18.597-3.777,27.435,0.129c4.251,1.879,9.223-0.005,11.161-4.229c2.056-4.48,5.657-8.013,10.138-9.948
		c8.99-3.882,19.329-0.697,24.581,7.575c1.47,2.314,3.965,3.778,6.702,3.93c2.733,0.15,5.379-1.024,7.098-3.16
		c2.042-2.538,4.59-4.479,7.575-5.768c10.046-4.338,21.75,0.306,26.088,10.353c0.601,1.391,1.031,2.867,1.314,4.512
		c0.497,2.88,2.438,5.302,5.14,6.415c2.703,1.114,5.786,0.759,8.166-0.935c2.809-2,5.825-3.701,8.965-5.057
		c4.31-1.861,6.295-6.863,4.435-11.173C362.08,105.658,357.077,103.674,352.768,105.534z"/>
</g>
<g>
</g>
<g>
</g>
<g>
</g>
<g>
</g>
<g>
</g>
<g>
</g>
<g>
</g>
<g>
</g>
<g>
</g>
<g>
</g>
<g>
</g>
<g>
</g>
<g>
</g>
<g>
</g>
<g>
</g>
</svg>
