<?xml version="1.0" standalone="no"?>
<!DOCTYPE svg PUBLIC "-//W3C//DTD SVG 20010904//EN"
 "http://www.w3.org/TR/2001/REC-SVG-20010904/DTD/svg10.dtd">
<svg version="1.0" xmlns="http://www.w3.org/2000/svg"
 width="700.000000pt" height="700.000000pt" viewBox="0 0 700.000000 700.000000"
 preserveAspectRatio="xMidYMid meet">
<metadata>
Created by potrace 1.14, written by Peter Selinger 2001-2017
</metadata>
<g transform="translate(0.000000,700.000000) scale(0.100000,-0.100000)"
fill="#000000" stroke="none">
<path d="M1939 6981 c-14 -11 -36 -43 -48 -71 -42 -97 -21 -393 43 -590 101
-315 339 -570 651 -695 192 -77 470 -129 682 -128 42 0 43 0 74 -65 105 -219
191 -480 228 -697 32 -185 36 -239 36 -490 -1 -220 -4 -287 -21 -400 -11 -76
-14 -95 -35 -197 -11 -57 -22 -113 -25 -125 -14 -73 -108 -367 -143 -448 -5
-11 -29 -67 -54 -125 -24 -58 -62 -139 -84 -180 l-40 -75 -959 0 -959 -1 -55
-25 c-69 -32 -125 -88 -158 -158 -22 -49 -25 -68 -26 -170 0 -104 2 -122 25
-171 53 -114 155 -181 282 -185 l70 -3 23 -63 c35 -101 316 -890 520 -1462 41
-115 74 -212 74 -216 0 -4 -179 -7 -397 -7 -432 -1 -429 0 -463 -57 -24 -39
-25 -68 -4 -113 33 -69 -155 -64 2268 -62 l2195 3 28 21 c68 51 46 185 -33
201 -11 2 -170 5 -356 5 l-336 2 60 170 c138 392 166 472 171 486 8 19 30 83
67 191 16 47 35 103 44 125 8 21 69 194 136 384 66 190 126 356 133 369 11 21
20 24 84 26 91 4 161 35 225 100 70 70 91 134 91 266 0 91 -3 112 -25 160 -32
69 -88 125 -158 158 l-55 25 -1122 1 c-618 0 -1123 0 -1123 1 0 1 19 41 41 90
23 49 54 100 68 114 15 14 56 61 92 105 35 44 68 85 74 91 5 7 17 20 25 30
183 228 315 368 420 448 61 45 64 46 138 47 80 1 92 2 214 13 198 19 469 89
618 161 251 120 448 315 556 552 38 82 88 261 98 353 14 116 15 325 3 359 -23
66 -46 74 -219 72 -84 0 -162 -3 -173 -5 -11 -2 -51 -7 -90 -11 -38 -4 -79 -9
-90 -11 -11 -3 -51 -11 -90 -19 -644 -134 -1027 -567 -1071 -1210 -4 -49 -10
-92 -15 -95 -37 -24 -101 -82 -197 -177 -74 -74 -111 -104 -108 -90 3 12 10
45 15 72 15 70 39 220 46 280 3 28 10 82 14 120 9 73 7 524 -3 585 -3 19 -8
55 -11 80 -12 88 -17 116 -36 209 -48 234 -132 475 -246 706 -23 46 -36 89
-39 125 -9 126 -15 187 -20 215 -79 437 -267 718 -605 904 -156 85 -350 148
-514 167 -27 3 -57 8 -65 10 -8 3 -87 8 -175 11 -151 5 -161 4 -186 -16z"/>
</g>
</svg>
